<svg xmlns="http://www.w3.org/2000/svg" width="41.722" height="37.369" viewBox="0 0 41.722 37.369">
  <path id="kario_sin_kairo" data-name="kario sin kairo" d="M24.931,23.84l16.5-12.754a.463.463,0,0,0,.181-.362L41.686.465A.462.462,0,0,0,41.227,0a.477.477,0,0,0-.291.1l-21.5,16.988a.126.126,0,0,0-.019.181l.006.006L20.956,18.8a1.42,1.42,0,1,1-.737,1.868,1.4,1.4,0,0,1-.084-.873l-5.023-5.023.006-.006L.859.5A.46.46,0,0,0,.206.5.488.488,0,0,0,.07.834v4.79a.128.128,0,0,0,.039.09L14.873,19.877a1.313,1.313,0,0,1,.789.013,1.409,1.409,0,1,1-.821,2.7,1.426,1.426,0,0,1-1-1.215,1.518,1.518,0,0,1,.019-.42L.283,7.919A.131.131,0,0,0,.1,7.931a.119.119,0,0,0-.032.078v4.085a.481.481,0,0,0,.142.336L18.519,30.039a1.411,1.411,0,1,1-.892,1.713,1.341,1.341,0,0,1-.019-.679c-.019-.013-.039-.032-.058-.045L15.325,28.8a.476.476,0,0,0-.33-.136H.07a32.871,32.871,0,0,0-.084,4.783,3.977,3.977,0,0,0,3.975,3.917H37.588A4.011,4.011,0,0,0,41.6,33.361V28.972a.463.463,0,0,0-.465-.465H29.055a.488.488,0,0,1-.33-.136l-3.846-3.846a.46.46,0,0,1,0-.653A.1.1,0,0,0,24.931,23.84Z" transform="translate(0.036 0)" fill="#ff721b"/>
</svg>
